<svg xmlns="http://www.w3.org/2000/svg" viewBox="0 0 64 80"><defs><linearGradient id="e" x1="0" y1="0" x2="1" y2="1"><stop offset="0" stop-color="#ffe2c4"/><stop offset=".35" stop-color="#fb923c"/><stop offset="1" stop-color="#b4540f"/></linearGradient><linearGradient id="f" x1="0" y1="0" x2="0" y2="1"><stop offset="0" stop-color="#6a3310"/><stop offset="1" stop-color="#2a1203"/></linearGradient><linearGradient id="g" x1="0" y1="0" x2="0" y2="1"><stop offset="0" stop-color="#fff" stop-opacity=".4"/><stop offset=".5" stop-color="#fff" stop-opacity="0"/></linearGradient></defs><rect x="6" y="8" width="54" height="68" rx="9" fill="#000" opacity=".4"/><rect x="4" y="5" width="54" height="68" rx="9" fill="#7a3a0a"/><rect x="4" y="3" width="54" height="68" rx="9" fill="url(#e)"/><rect x="9" y="8" width="44" height="58" rx="6" fill="url(#f)"/><rect x="9" y="8" width="44" height="29" rx="6" fill="url(#g)"/><path d="M24.500 30C24.500 20 38.500 20 38.500 29.500C38.500 35 31.500 35 31.500 41" fill="none" stroke="#fb923c" stroke-width="5.500" stroke-linecap="round"/><circle cx="31.500" cy="50" r="3.400" fill="#fb923c"/><path d="M9 15A6 6 0 0 1 15 9H24" fill="none" stroke="#fff" stroke-opacity=".6" stroke-width="2" stroke-linecap="round"/></svg>
